<svg xmlns="http://www.w3.org/2000/svg" viewBox="0 0 512 512">
  <defs>
    <linearGradient id="bg" x1="0%" y1="0%" x2="100%" y2="100%">
      <stop offset="0%" stop-color="#FF6B00"/>
      <stop offset="100%" stop-color="#B83C00"/>
    </linearGradient>
    <linearGradient id="tier" x1="0%" y1="0%" x2="0%" y2="100%">
      <stop offset="0%" stop-color="#FFFFFF"/>
      <stop offset="100%" stop-color="#FFEEDD"/>
    </linearGradient>
  </defs>
  <rect width="512" height="512" rx="114" fill="url(#bg)"/>
  <text x="256" y="310" font-family="Arial Black,sans-serif" font-size="210"
        font-weight="900" text-anchor="middle" fill="rgba(255,255,255,0.07)"
        letter-spacing="-8">KM</text>
  <rect x="72" y="328" width="368" height="88" rx="22" fill="url(#tier)"/>
  <circle cx="152" cy="372" r="13" fill="#E05500" opacity="0.65"/>
  <circle cx="208" cy="372" r="13" fill="#FFD700" opacity="0.75"/>
  <circle cx="264" cy="372" r="13" fill="#E05500" opacity="0.65"/>
  <circle cx="320" cy="372" r="13" fill="#FFD700" opacity="0.75"/>
  <circle cx="376" cy="372" r="13" fill="#E05500" opacity="0.65"/>
  <rect x="110" y="236" width="292" height="98" rx="18" fill="url(#tier)"/>
  <path d="M 110 256 C 136 238 158 256 184 246 C 210 236 232 254
           258 246 C 284 238 306 254 332 246 C 358 238 380 254 402 248"
        stroke="#FFD700" stroke-width="11" fill="none" stroke-linecap="round"/>
  <circle cx="184" cy="282" r="9" fill="#FF6B00" opacity="0.55"/>
  <circle cx="256" cy="282" r="9" fill="#FFD700" opacity="0.70"/>
  <circle cx="328" cy="282" r="9" fill="#FF6B00" opacity="0.55"/>
  <rect x="158" y="158" width="196" height="84" rx="16" fill="url(#tier)"/>
  <rect x="208" y="112" width="22" height="54" rx="11" fill="#FFD700"/>
  <rect x="245" y="100" width="22" height="66" rx="11" fill="#FF9090"/>
  <rect x="282" y="112" width="22" height="54" rx="11" fill="#FFD700"/>
  <ellipse cx="219" cy="103" rx="11" ry="15" fill="#FF8C00"/>
  <ellipse cx="219" cy="101" rx="6.5" ry="10" fill="#FFD700"/>
  <ellipse cx="219" cy="99"  rx="3"   ry="6"  fill="white" opacity="0.85"/>
  <ellipse cx="256" cy="90"  rx="12" ry="16" fill="#FF8C00"/>
  <ellipse cx="256" cy="88"  rx="7"  ry="11" fill="#FFD700"/>
  <ellipse cx="256" cy="86"  rx="3.5" ry="6.5" fill="white" opacity="0.85"/>
  <ellipse cx="293" cy="103" rx="11" ry="15" fill="#FF8C00"/>
  <ellipse cx="293" cy="101" rx="6.5" ry="10" fill="#FFD700"/>
  <ellipse cx="293" cy="99"  rx="3"   ry="6"  fill="white" opacity="0.85"/>
  <circle cx="112" cy="148" r="7" fill="#FFD700" opacity="0.75"/>
  <circle cx="400" cy="162" r="6" fill="#FFD700" opacity="0.65"/>
</svg>